<mxfile host="app.diagrams.net" modified="2023-08-14T14:32:44.577Z" agent="Mozilla/5.0 (Windows NT 10.0; Win64; x64) AppleWebKit/537.36 (KHTML, like Gecko) Chrome/114.0.0.0 Safari/537.36" etag="o4-n6NG4eoIseryEXAtI" version="21.6.8" type="github">
  <diagram id="B5qiVeEW7mNZTwn2TdTI" name="Page-1">
    <mxGraphModel dx="2271" dy="1951" grid="1" gridSize="10" guides="1" tooltips="1" connect="1" arrows="1" fold="0" page="1" pageScale="1" pageWidth="827" pageHeight="1169" math="0" shadow="0">
      <root>
        <mxCell id="0" />
        <mxCell id="1" parent="0" />
        <mxCell id="9RnYNbhTkQg6Az12UEx9-4" value="&lt;b&gt;&lt;font style=&quot;font-size: 17px&quot;&gt;Cloud&lt;/font&gt;&lt;/b&gt;" style="rounded=0;whiteSpace=wrap;html=1;align=right;verticalAlign=top;fillColor=#fff2cc;strokeColor=#99CCFF;" parent="1" vertex="1">
          <mxGeometry x="-162.5" y="-160" width="1330" height="770" as="geometry" />
        </mxCell>
        <mxCell id="9RnYNbhTkQg6Az12UEx9-20" style="edgeStyle=orthogonalEdgeStyle;rounded=0;orthogonalLoop=1;jettySize=auto;html=1;entryX=1.023;entryY=0.957;entryDx=0;entryDy=0;entryPerimeter=0;fontSize=17;startArrow=classic;startFill=1;flowAnimation=1;exitX=0;exitY=0.5;exitDx=0;exitDy=0;strokeWidth=2;" parent="1" source="9RnYNbhTkQg6Az12UEx9-21" target="9RnYNbhTkQg6Az12UEx9-7" edge="1">
          <mxGeometry relative="1" as="geometry">
            <mxPoint x="376.5" y="520.0588235294117" as="sourcePoint" />
          </mxGeometry>
        </mxCell>
        <mxCell id="9RnYNbhTkQg6Az12UEx9-22" value="Get Dynamic Add&amp;nbsp;" style="edgeLabel;html=1;align=center;verticalAlign=middle;resizable=0;points=[];fontSize=17;" parent="9RnYNbhTkQg6Az12UEx9-20" vertex="1" connectable="0">
          <mxGeometry x="-0.0233" y="3" relative="1" as="geometry">
            <mxPoint as="offset" />
          </mxGeometry>
        </mxCell>
        <mxCell id="9RnYNbhTkQg6Az12UEx9-6" style="edgeStyle=orthogonalEdgeStyle;rounded=0;orthogonalLoop=1;jettySize=auto;html=1;fontSize=17;startArrow=classic;startFill=1;flowAnimation=1;entryX=0.559;entryY=1.004;entryDx=0;entryDy=0;entryPerimeter=0;exitX=0.05;exitY=0.5;exitDx=0;exitDy=0;exitPerimeter=0;" parent="1" source="9RnYNbhTkQg6Az12UEx9-60" target="9RnYNbhTkQg6Az12UEx9-21" edge="1">
          <mxGeometry relative="1" as="geometry">
            <mxPoint x="150" y="758.5714285714289" as="sourcePoint" />
            <mxPoint x="461.47058823529414" y="550" as="targetPoint" />
          </mxGeometry>
        </mxCell>
        <UserObject label="&lt;span style=&quot;background-color: rgb(255 , 255 , 255)&quot;&gt;Eureka&lt;/span&gt;" tooltip="This service keeps the track of the all microservices. &#xa;Microservices instances are dynamically get created or distroyed. So to get address always get changes. To solve this problem, Each MS should register it self with it&#39;s service name and address map. &#xa;Whenever anyone wants to access the service then only Eureka can help. &#xa;MS should send it&#39;s heartbeat time  to time. " id="9RnYNbhTkQg6Az12UEx9-7">
          <mxCell style="shape=mxgraph.cisco.switches.intelliswitch_stack;html=1;pointerEvents=1;dashed=0;fillColor=#036897;strokeColor=#ffffff;strokeWidth=2;verticalLabelPosition=bottom;verticalAlign=top;align=center;outlineConnect=0;fontSize=17;" parent="1" vertex="1">
            <mxGeometry x="-90" y="390" width="100" height="175" as="geometry" />
          </mxCell>
        </UserObject>
        <mxCell id="9RnYNbhTkQg6Az12UEx9-14" style="edgeStyle=orthogonalEdgeStyle;rounded=0;orthogonalLoop=1;jettySize=auto;html=1;fontSize=17;startArrow=none;startFill=0;flowAnimation=0;fixDash=1;backgroundOutline=1;noJump=0;strokeColor=#99CCFF;entryX=0.5;entryY=0;entryDx=0;entryDy=0;entryPerimeter=0;" parent="1" source="9RnYNbhTkQg6Az12UEx9-9" target="9RnYNbhTkQg6Az12UEx9-7" edge="1">
          <mxGeometry relative="1" as="geometry">
            <Array as="points">
              <mxPoint x="-30" y="149" />
              <mxPoint x="-30" y="400" />
            </Array>
          </mxGeometry>
        </mxCell>
        <mxCell id="9RnYNbhTkQg6Az12UEx9-27" style="edgeStyle=orthogonalEdgeStyle;rounded=0;orthogonalLoop=1;jettySize=auto;html=1;entryX=0.5;entryY=0;entryDx=0;entryDy=0;fontSize=17;startArrow=classic;startFill=1;flowAnimation=1;" parent="1" source="9RnYNbhTkQg6Az12UEx9-9" target="9RnYNbhTkQg6Az12UEx9-21" edge="1">
          <mxGeometry relative="1" as="geometry" />
        </mxCell>
        <mxCell id="9RnYNbhTkQg6Az12UEx9-65" style="edgeStyle=orthogonalEdgeStyle;rounded=0;orthogonalLoop=1;jettySize=auto;html=1;entryX=0;entryY=0.5;entryDx=0;entryDy=0;entryPerimeter=0;fontSize=17;fontColor=#000000;startArrow=none;startFill=0;strokeColor=#00CCCC;strokeWidth=1;flowAnimation=1;" parent="1" target="9RnYNbhTkQg6Az12UEx9-64" edge="1">
          <mxGeometry relative="1" as="geometry">
            <mxPoint x="470" y="60" as="sourcePoint" />
            <Array as="points">
              <mxPoint x="708" y="30" />
              <mxPoint x="708" y="10" />
              <mxPoint x="950" y="10" />
            </Array>
          </mxGeometry>
        </mxCell>
        <mxCell id="9RnYNbhTkQg6Az12UEx9-68" value="logs" style="edgeLabel;html=1;align=center;verticalAlign=middle;resizable=0;points=[];fontSize=17;fontColor=#000000;" parent="9RnYNbhTkQg6Az12UEx9-65" vertex="1" connectable="0">
          <mxGeometry x="0.1759" y="-4" relative="1" as="geometry">
            <mxPoint x="103" y="-7" as="offset" />
          </mxGeometry>
        </mxCell>
        <UserObject label="&lt;span style=&quot;background-color: rgb(255 , 255 , 255)&quot;&gt;MS 1&lt;/span&gt;" link="data:page/id,B5qiVeEW7mNZTwn2TdTI" linkTarget="_blank" id="9RnYNbhTkQg6Az12UEx9-9">
          <mxCell style="outlineConnect=0;dashed=0;verticalLabelPosition=bottom;verticalAlign=top;align=center;html=1;shape=mxgraph.aws3.ec2;fillColor=#F58534;gradientColor=none;fontSize=17;" parent="1" vertex="1">
            <mxGeometry x="370" y="10" width="136.5" height="123" as="geometry" />
          </mxCell>
        </UserObject>
        <mxCell id="9RnYNbhTkQg6Az12UEx9-15" style="edgeStyle=orthogonalEdgeStyle;rounded=0;orthogonalLoop=1;jettySize=auto;html=1;fontSize=17;startArrow=none;startFill=0;flowAnimation=0;fixDash=1;backgroundOutline=1;noJump=0;strokeColor=#99CCFF;" parent="1" source="9RnYNbhTkQg6Az12UEx9-10" edge="1">
          <mxGeometry relative="1" as="geometry">
            <mxPoint x="-30" y="410" as="targetPoint" />
            <Array as="points">
              <mxPoint x="210" y="340" />
              <mxPoint x="-30" y="340" />
            </Array>
          </mxGeometry>
        </mxCell>
        <mxCell id="9RnYNbhTkQg6Az12UEx9-25" style="edgeStyle=orthogonalEdgeStyle;rounded=0;orthogonalLoop=1;jettySize=auto;html=1;fontSize=17;startArrow=classic;startFill=1;flowAnimation=1;" parent="1" source="9RnYNbhTkQg6Az12UEx9-10" target="9RnYNbhTkQg6Az12UEx9-21" edge="1">
          <mxGeometry relative="1" as="geometry">
            <Array as="points">
              <mxPoint x="503" y="239" />
            </Array>
          </mxGeometry>
        </mxCell>
        <UserObject label="" tooltip="This is interservice communication. Genrally it can be done with Rest template or Feigh client.&#xa;" id="9RnYNbhTkQg6Az12UEx9-31">
          <mxCell style="edgeStyle=orthogonalEdgeStyle;rounded=0;orthogonalLoop=1;jettySize=auto;html=1;entryX=0.5;entryY=1;entryDx=0;entryDy=0;entryPerimeter=0;fontSize=17;startArrow=classic;startFill=1;flowAnimation=1;" parent="1" source="9RnYNbhTkQg6Az12UEx9-10" target="9RnYNbhTkQg6Az12UEx9-9" edge="1">
            <mxGeometry relative="1" as="geometry">
              <Array as="points">
                <mxPoint x="287" y="210" />
                <mxPoint x="287" y="223" />
                <mxPoint x="318" y="223" />
              </Array>
            </mxGeometry>
          </mxCell>
        </UserObject>
        <mxCell id="9RnYNbhTkQg6Az12UEx9-41" style="edgeStyle=orthogonalEdgeStyle;rounded=0;orthogonalLoop=1;jettySize=auto;html=1;fontSize=17;startArrow=classic;startFill=0;strokeColor=#99CCFF;strokeWidth=1;" parent="1" source="9RnYNbhTkQg6Az12UEx9-10" target="9RnYNbhTkQg6Az12UEx9-39" edge="1">
          <mxGeometry relative="1" as="geometry" />
        </mxCell>
        <mxCell id="9RnYNbhTkQg6Az12UEx9-74" style="edgeStyle=orthogonalEdgeStyle;rounded=0;orthogonalLoop=1;jettySize=auto;html=1;entryX=0.5;entryY=1;entryDx=0;entryDy=0;entryPerimeter=0;fontSize=20;fontColor=#000000;startArrow=none;startFill=0;strokeColor=#00CCCC;strokeWidth=1;flowAnimation=1;" parent="1" source="9RnYNbhTkQg6Az12UEx9-10" target="9RnYNbhTkQg6Az12UEx9-64" edge="1">
          <mxGeometry relative="1" as="geometry" />
        </mxCell>
        <mxCell id="9RnYNbhTkQg6Az12UEx9-76" value="logs" style="edgeLabel;html=1;align=center;verticalAlign=middle;resizable=0;points=[];fontSize=17;fontColor=#000000;" parent="9RnYNbhTkQg6Az12UEx9-74" vertex="1" connectable="0">
          <mxGeometry x="0.7029" y="-2" relative="1" as="geometry">
            <mxPoint x="-2" y="-42" as="offset" />
          </mxGeometry>
        </mxCell>
        <mxCell id="9RnYNbhTkQg6Az12UEx9-10" value="&lt;span style=&quot;background-color: rgb(255 , 255 , 255)&quot;&gt;MS 2&lt;/span&gt;" style="outlineConnect=0;dashed=0;verticalLabelPosition=bottom;verticalAlign=top;align=center;html=1;shape=mxgraph.aws3.machine_learning;fillColor=#2E73B8;gradientColor=none;fontSize=17;" parent="1" vertex="1">
          <mxGeometry x="140" y="170" width="106.5" height="108" as="geometry" />
        </mxCell>
        <mxCell id="9RnYNbhTkQg6Az12UEx9-16" style="edgeStyle=orthogonalEdgeStyle;rounded=0;orthogonalLoop=1;jettySize=auto;html=1;fontSize=17;startArrow=none;startFill=0;flowAnimation=0;fixDash=1;backgroundOutline=1;noJump=0;strokeColor=#99CCFF;" parent="1" source="9RnYNbhTkQg6Az12UEx9-11" target="9RnYNbhTkQg6Az12UEx9-7" edge="1">
          <mxGeometry relative="1" as="geometry">
            <mxPoint x="170" y="480" as="targetPoint" />
            <Array as="points">
              <mxPoint x="353" y="199" />
              <mxPoint x="353" y="340" />
              <mxPoint x="-30" y="340" />
            </Array>
          </mxGeometry>
        </mxCell>
        <mxCell id="9RnYNbhTkQg6Az12UEx9-50" value="Register" style="edgeLabel;html=1;align=center;verticalAlign=middle;resizable=0;points=[];fontSize=17;" parent="9RnYNbhTkQg6Az12UEx9-16" vertex="1" connectable="0">
          <mxGeometry x="0.9306" y="-2" relative="1" as="geometry">
            <mxPoint x="2" y="6" as="offset" />
          </mxGeometry>
        </mxCell>
        <UserObject label="" tooltip="This is interservice communication. Genrally it can be done with Rest template or Feigh client.&#xa;" id="9RnYNbhTkQg6Az12UEx9-29">
          <mxCell style="edgeStyle=orthogonalEdgeStyle;rounded=0;orthogonalLoop=1;jettySize=auto;html=1;entryX=0.751;entryY=0.88;entryDx=0;entryDy=0;entryPerimeter=0;fontSize=17;startArrow=classic;startFill=1;flowAnimation=1;" parent="1" source="9RnYNbhTkQg6Az12UEx9-11" target="9RnYNbhTkQg6Az12UEx9-10" edge="1">
            <mxGeometry relative="1" as="geometry">
              <Array as="points">
                <mxPoint x="650" y="280" />
              </Array>
            </mxGeometry>
          </mxCell>
        </UserObject>
        <mxCell id="9RnYNbhTkQg6Az12UEx9-67" value="logs" style="edgeStyle=orthogonalEdgeStyle;rounded=0;orthogonalLoop=1;jettySize=auto;html=1;entryX=0.806;entryY=1.007;entryDx=0;entryDy=0;entryPerimeter=0;fontSize=17;fontColor=#000000;startArrow=none;startFill=0;strokeColor=#00CCCC;strokeWidth=1;flowAnimation=1;" parent="1" source="9RnYNbhTkQg6Az12UEx9-11" target="9RnYNbhTkQg6Az12UEx9-64" edge="1">
          <mxGeometry x="0.4706" relative="1" as="geometry">
            <mxPoint as="offset" />
          </mxGeometry>
        </mxCell>
        <mxCell id="9RnYNbhTkQg6Az12UEx9-11" value="&lt;span style=&quot;background-color: rgb(255 , 255 , 255)&quot;&gt;MS 3&lt;/span&gt;" style="outlineConnect=0;dashed=0;verticalLabelPosition=bottom;verticalAlign=top;align=center;html=1;shape=mxgraph.aws3.elastic_load_balancing;fillColor=#F58534;gradientColor=none;fontSize=17;" parent="1" vertex="1">
          <mxGeometry x="630" y="150" width="106.5" height="98" as="geometry" />
        </mxCell>
        <UserObject label="API Gateway" tooltip="This service is entry point of the microservice architecture. So gateway is the service which provides the authentication and routing for external API call. &#xa;Each time the request comes. It get the latest list of the Service-name and address of it&#39;s intances from Eureka and send the request to the service.&#xa;Gateway is responsible for load balancing as well. " id="9RnYNbhTkQg6Az12UEx9-21">
          <mxCell style="image;html=1;image=img/lib/clip_art/networking/Router_Icon_128x128.png;fontSize=17;align=center;verticalAlign=middle;" parent="1" vertex="1">
            <mxGeometry x="414" y="472.5" width="145" height="80" as="geometry" />
          </mxCell>
        </UserObject>
        <mxCell id="9RnYNbhTkQg6Az12UEx9-35" style="edgeStyle=orthogonalEdgeStyle;rounded=0;orthogonalLoop=1;jettySize=auto;html=1;fontSize=17;startArrow=classic;startFill=1;flowAnimation=1;strokeWidth=3;" parent="1" source="9RnYNbhTkQg6Az12UEx9-32" target="9RnYNbhTkQg6Az12UEx9-9" edge="1">
          <mxGeometry relative="1" as="geometry">
            <Array as="points">
              <mxPoint x="280" y="-75" />
              <mxPoint x="280" y="40" />
            </Array>
          </mxGeometry>
        </mxCell>
        <mxCell id="9RnYNbhTkQg6Az12UEx9-32" value="DB 1" style="image;html=1;image=img/lib/clip_art/computers/Database_128x128.png;fontSize=17;align=center;verticalAlign=bottom;labelPosition=center;verticalLabelPosition=top;" parent="1" vertex="1">
          <mxGeometry x="250" y="-120" width="80" height="90" as="geometry" />
        </mxCell>
        <mxCell id="9RnYNbhTkQg6Az12UEx9-36" style="edgeStyle=orthogonalEdgeStyle;rounded=0;orthogonalLoop=1;jettySize=auto;html=1;fontSize=17;startArrow=classic;startFill=1;flowAnimation=1;strokeWidth=3;" parent="1" source="9RnYNbhTkQg6Az12UEx9-33" target="9RnYNbhTkQg6Az12UEx9-9" edge="1">
          <mxGeometry relative="1" as="geometry" />
        </mxCell>
        <mxCell id="9RnYNbhTkQg6Az12UEx9-33" value="DB 2" style="image;html=1;image=img/lib/clip_art/computers/Database_Add_128x128.png;fontSize=17;align=center;verticalAlign=bottom;labelPosition=center;verticalLabelPosition=top;" parent="1" vertex="1">
          <mxGeometry x="460" y="-122.5" width="115" height="95" as="geometry" />
        </mxCell>
        <mxCell id="9RnYNbhTkQg6Az12UEx9-37" style="edgeStyle=orthogonalEdgeStyle;rounded=0;orthogonalLoop=1;jettySize=auto;html=1;fontSize=17;startArrow=classic;startFill=1;flowAnimation=1;strokeWidth=3;" parent="1" source="9RnYNbhTkQg6Az12UEx9-34" target="9RnYNbhTkQg6Az12UEx9-11" edge="1">
          <mxGeometry relative="1" as="geometry" />
        </mxCell>
        <mxCell id="9RnYNbhTkQg6Az12UEx9-34" value="DB 3" style="image;html=1;image=img/lib/clip_art/computers/Database_Move_Stack_128x128.png;fontSize=17;align=center;verticalAlign=bottom;labelPosition=center;verticalLabelPosition=top;" parent="1" vertex="1">
          <mxGeometry x="650" y="-122.5" width="100" height="91.5" as="geometry" />
        </mxCell>
        <mxCell id="9RnYNbhTkQg6Az12UEx9-42" style="edgeStyle=orthogonalEdgeStyle;rounded=0;orthogonalLoop=1;jettySize=auto;html=1;entryX=0;entryY=0.5;entryDx=0;entryDy=0;entryPerimeter=0;fontSize=17;startArrow=classic;startFill=0;strokeColor=#99CCFF;strokeWidth=1;" parent="1" source="9RnYNbhTkQg6Az12UEx9-39" target="9RnYNbhTkQg6Az12UEx9-9" edge="1">
          <mxGeometry relative="1" as="geometry">
            <Array as="points">
              <mxPoint x="-80" y="102" />
            </Array>
          </mxGeometry>
        </mxCell>
        <mxCell id="9RnYNbhTkQg6Az12UEx9-43" style="edgeStyle=orthogonalEdgeStyle;rounded=0;orthogonalLoop=1;jettySize=auto;html=1;fontSize=17;startArrow=classic;startFill=0;strokeColor=#99CCFF;strokeWidth=1;" parent="1" source="9RnYNbhTkQg6Az12UEx9-39" target="9RnYNbhTkQg6Az12UEx9-11" edge="1">
          <mxGeometry relative="1" as="geometry">
            <Array as="points">
              <mxPoint x="-80" y="180" />
            </Array>
          </mxGeometry>
        </mxCell>
        <mxCell id="9RnYNbhTkQg6Az12UEx9-44" value="Get Properties" style="edgeLabel;html=1;align=center;verticalAlign=middle;resizable=0;points=[];fontSize=17;" parent="9RnYNbhTkQg6Az12UEx9-43" vertex="1" connectable="0">
          <mxGeometry x="-0.8853" relative="1" as="geometry">
            <mxPoint as="offset" />
          </mxGeometry>
        </mxCell>
        <UserObject label="&lt;span style=&quot;background-color: rgb(255 , 255 , 255)&quot;&gt;Config Server&lt;/span&gt;" tooltip="This service contains externalize common properties for the MS. &#xa;To get these properties MS need to register it self with config service." id="9RnYNbhTkQg6Az12UEx9-39">
          <mxCell style="sketch=0;html=1;aspect=fixed;strokeColor=none;shadow=0;align=center;verticalAlign=bottom;fillColor=#3B8DF1;shape=mxgraph.gcp2.files;fontSize=17;labelPosition=center;verticalLabelPosition=top;" parent="1" vertex="1">
            <mxGeometry x="-132.5" y="-113.5" width="100" height="97" as="geometry" />
          </mxCell>
        </UserObject>
        <mxCell id="9RnYNbhTkQg6Az12UEx9-45" style="edgeStyle=orthogonalEdgeStyle;rounded=0;orthogonalLoop=1;jettySize=auto;html=1;fontSize=17;startArrow=classic;startFill=0;strokeColor=#99CCFF;strokeWidth=1;" parent="1" source="9RnYNbhTkQg6Az12UEx9-40" target="9RnYNbhTkQg6Az12UEx9-10" edge="1">
          <mxGeometry relative="1" as="geometry">
            <Array as="points">
              <mxPoint x="52" y="239" />
            </Array>
          </mxGeometry>
        </mxCell>
        <mxCell id="9RnYNbhTkQg6Az12UEx9-47" style="edgeStyle=orthogonalEdgeStyle;rounded=0;orthogonalLoop=1;jettySize=auto;html=1;fontSize=17;startArrow=classic;startFill=0;strokeColor=#99CCFF;strokeWidth=1;" parent="1" source="9RnYNbhTkQg6Az12UEx9-40" target="9RnYNbhTkQg6Az12UEx9-9" edge="1">
          <mxGeometry relative="1" as="geometry">
            <Array as="points">
              <mxPoint x="52" y="50" />
              <mxPoint x="220" y="50" />
              <mxPoint x="220" y="66" />
            </Array>
          </mxGeometry>
        </mxCell>
        <mxCell id="9RnYNbhTkQg6Az12UEx9-48" style="edgeStyle=orthogonalEdgeStyle;rounded=0;orthogonalLoop=1;jettySize=auto;html=1;fontSize=17;startArrow=classic;startFill=0;strokeColor=#99CCFF;strokeWidth=1;entryX=0;entryY=0.21;entryDx=0;entryDy=0;entryPerimeter=0;" parent="1" source="9RnYNbhTkQg6Az12UEx9-40" target="9RnYNbhTkQg6Az12UEx9-11" edge="1">
          <mxGeometry relative="1" as="geometry">
            <mxPoint x="630" y="160" as="targetPoint" />
            <Array as="points">
              <mxPoint x="52" y="50" />
              <mxPoint x="630" y="50" />
              <mxPoint x="630" y="161" />
            </Array>
          </mxGeometry>
        </mxCell>
        <mxCell id="9RnYNbhTkQg6Az12UEx9-49" value="Creds" style="edgeLabel;html=1;align=center;verticalAlign=middle;resizable=0;points=[];fontSize=17;" parent="9RnYNbhTkQg6Az12UEx9-48" vertex="1" connectable="0">
          <mxGeometry x="-0.9203" y="-4" relative="1" as="geometry">
            <mxPoint as="offset" />
          </mxGeometry>
        </mxCell>
        <UserObject label="&lt;span style=&quot;background-color: rgb(255 , 255 , 255)&quot;&gt;Vault&lt;/span&gt;" tooltip="This service stores the creds (DB/ Gateway/ Inter microservices ect.) of the whole system and provides to micro services.&#xa;To get the creds from vault MS need to register it self with the vault service.&#xa;" id="9RnYNbhTkQg6Az12UEx9-40">
          <mxCell style="outlineConnect=0;dashed=0;verticalLabelPosition=top;verticalAlign=bottom;align=center;html=1;shape=mxgraph.aws3.vault;fillColor=#E05243;gradientColor=none;fontSize=17;labelPosition=center;" parent="1" vertex="1">
            <mxGeometry x="20" y="-113.5" width="84" height="93.5" as="geometry" />
          </mxCell>
        </UserObject>
        <mxCell id="9RnYNbhTkQg6Az12UEx9-57" style="edgeStyle=orthogonalEdgeStyle;rounded=0;orthogonalLoop=1;jettySize=auto;html=1;entryX=1;entryY=0.21;entryDx=0;entryDy=0;entryPerimeter=0;fontSize=17;startArrow=classic;startFill=0;strokeColor=#FF6666;strokeWidth=1;fontColor=#000000;flowAnimation=1;exitX=0;exitY=0.5;exitDx=0;exitDy=0;exitPerimeter=0;" parent="1" source="9RnYNbhTkQg6Az12UEx9-56" target="9RnYNbhTkQg6Az12UEx9-11" edge="1">
          <mxGeometry relative="1" as="geometry">
            <Array as="points">
              <mxPoint x="803" y="513" />
              <mxPoint x="803" y="171" />
            </Array>
          </mxGeometry>
        </mxCell>
        <mxCell id="9RnYNbhTkQg6Az12UEx9-62" value="pub/sub" style="edgeLabel;html=1;align=center;verticalAlign=middle;resizable=0;points=[];fontSize=17;fontColor=#000000;" parent="9RnYNbhTkQg6Az12UEx9-57" vertex="1" connectable="0">
          <mxGeometry x="0.215" y="-2" relative="1" as="geometry">
            <mxPoint y="149" as="offset" />
          </mxGeometry>
        </mxCell>
        <mxCell id="9RnYNbhTkQg6Az12UEx9-58" style="edgeStyle=orthogonalEdgeStyle;rounded=0;orthogonalLoop=1;jettySize=auto;html=1;entryX=1;entryY=0.5;entryDx=0;entryDy=0;entryPerimeter=0;fontSize=17;fontColor=#000000;startArrow=classic;startFill=0;strokeColor=#FF6666;strokeWidth=1;flowAnimation=1;exitX=0.5;exitY=0;exitDx=0;exitDy=0;exitPerimeter=0;" parent="1" source="9RnYNbhTkQg6Az12UEx9-56" target="9RnYNbhTkQg6Az12UEx9-9" edge="1">
          <mxGeometry relative="1" as="geometry">
            <Array as="points">
              <mxPoint x="950" y="82" />
            </Array>
          </mxGeometry>
        </mxCell>
        <mxCell id="9RnYNbhTkQg6Az12UEx9-63" value="pub/sub" style="edgeLabel;html=1;align=center;verticalAlign=middle;resizable=0;points=[];fontSize=17;fontColor=#000000;" parent="9RnYNbhTkQg6Az12UEx9-58" vertex="1" connectable="0">
          <mxGeometry x="-0.5343" y="-2" relative="1" as="geometry">
            <mxPoint x="-2" y="96" as="offset" />
          </mxGeometry>
        </mxCell>
        <mxCell id="9RnYNbhTkQg6Az12UEx9-59" style="edgeStyle=orthogonalEdgeStyle;rounded=0;orthogonalLoop=1;jettySize=auto;html=1;fontSize=17;fontColor=#000000;startArrow=classic;startFill=0;strokeColor=#000000;strokeWidth=1;entryX=0.5;entryY=0;entryDx=0;entryDy=0;entryPerimeter=0;flowAnimation=1;" parent="1" source="9RnYNbhTkQg6Az12UEx9-56" target="9RnYNbhTkQg6Az12UEx9-60" edge="1">
          <mxGeometry relative="1" as="geometry">
            <mxPoint x="1110" y="680" as="targetPoint" />
          </mxGeometry>
        </mxCell>
        <UserObject label="&lt;span style=&quot;background-color: rgb(255 , 255 , 255)&quot;&gt;Messaging Service&lt;br&gt;&lt;/span&gt;" tooltip="This is alternate user interface provided with messaging service. Have more advantages over traditional Rest API calls. Have pub-sub mechanisam to handle the messaging and built-in load balancing and retry mechanism. &#xa;Genarally used Rabbit MQ or Amazon SNS etc for simple messaging.&#xa;Can use kafka for messaging and streaming purpose.  " id="9RnYNbhTkQg6Az12UEx9-56">
          <mxCell style="verticalLabelPosition=bottom;html=1;verticalAlign=top;align=center;strokeColor=none;fillColor=#00BEF2;shape=mxgraph.azure.storage_queue;fontSize=17;fontStyle=0" parent="1" vertex="1">
            <mxGeometry x="870" y="460" width="160" height="105" as="geometry" />
          </mxCell>
        </UserObject>
        <mxCell id="9RnYNbhTkQg6Az12UEx9-72" style="edgeStyle=orthogonalEdgeStyle;rounded=0;orthogonalLoop=1;jettySize=auto;html=1;entryX=0.89;entryY=0.24;entryDx=0;entryDy=0;entryPerimeter=0;fontSize=20;fontColor=#000000;startArrow=none;startFill=0;strokeColor=#000000;strokeWidth=1;flowAnimation=1;" parent="1" source="9RnYNbhTkQg6Az12UEx9-64" target="9RnYNbhTkQg6Az12UEx9-71" edge="1">
          <mxGeometry relative="1" as="geometry">
            <Array as="points">
              <mxPoint x="1032" y="-573" />
              <mxPoint x="-104" y="-573" />
            </Array>
          </mxGeometry>
        </mxCell>
        <UserObject label="Monitoring/Debugging" tooltip="Zipkin provides it&#39;s own web interface to track the logs by using different filters. But we can use the other tools for saving/finding the logs. &#xa;Like Elastic search, Grafana, montools, loginsite etc. " id="9RnYNbhTkQg6Az12UEx9-75">
          <mxCell style="edgeLabel;html=1;align=center;verticalAlign=middle;resizable=0;points=[];fontSize=20;fontColor=#000000;" parent="9RnYNbhTkQg6Az12UEx9-72" vertex="1" connectable="0">
            <mxGeometry x="-0.113" y="-1" relative="1" as="geometry">
              <mxPoint x="161" y="106" as="offset" />
            </mxGeometry>
          </mxCell>
        </UserObject>
        <UserObject label="Centralizes Logging" tooltip="This service used to collect the logs of microservices and provides it to the developers for monitoring and debugging the requests.&#xa;This is genrally zipkin service. And for distributed logging we use spring sleuth to generate the logs with microservice_name, trace_id, span_id, and is_publish_on_zipkin values. " id="9RnYNbhTkQg6Az12UEx9-64">
          <mxCell style="fillColor=#28A8E0;verticalLabelPosition=top;sketch=0;html=1;strokeColor=#ffffff;verticalAlign=bottom;align=center;points=[[0.145,0.145,0],[0.5,0,0],[0.855,0.145,0],[1,0.5,0],[0.855,0.855,0],[0.5,1,0],[0.145,0.855,0],[0,0.5,0]];pointerEvents=1;shape=mxgraph.cisco_safe.compositeIcon;bgIcon=ellipse;resIcon=mxgraph.cisco_safe.capability.logging_reporting;labelBackgroundColor=#FFFFFF;fontSize=17;fontColor=#000000;labelPosition=center;" parent="1" vertex="1">
            <mxGeometry x="980" y="-113" width="123" height="83" as="geometry" />
          </mxCell>
        </UserObject>
        <mxCell id="9RnYNbhTkQg6Az12UEx9-82" style="edgeStyle=orthogonalEdgeStyle;rounded=0;orthogonalLoop=1;jettySize=auto;html=1;fontSize=20;fontColor=#000000;startArrow=none;startFill=0;strokeColor=#000000;strokeWidth=2;entryX=0;entryY=0.25;entryDx=0;entryDy=0;" parent="1" source="9RnYNbhTkQg6Az12UEx9-71" target="9RnYNbhTkQg6Az12UEx9-79" edge="1">
          <mxGeometry relative="1" as="geometry">
            <mxPoint x="90" y="-510" as="targetPoint" />
          </mxGeometry>
        </mxCell>
        <UserObject label="&lt;b&gt;Developer&lt;/b&gt;" tooltip="This is me" id="9RnYNbhTkQg6Az12UEx9-71">
          <mxCell style="shape=mxgraph.cisco.people.androgenous_person;html=1;pointerEvents=1;dashed=0;fillColor=#036897;strokeColor=#ffffff;strokeWidth=2;verticalLabelPosition=bottom;verticalAlign=top;align=center;outlineConnect=0;labelBackgroundColor=#FFFFFF;fontSize=20;fontColor=#000000;" parent="1" vertex="1">
            <mxGeometry x="-220" y="-556" width="130" height="112" as="geometry" />
          </mxCell>
        </UserObject>
        <mxCell id="9RnYNbhTkQg6Az12UEx9-81" style="edgeStyle=orthogonalEdgeStyle;rounded=0;orthogonalLoop=1;jettySize=auto;html=1;entryX=0;entryY=0.5;entryDx=0;entryDy=0;fontSize=20;fontColor=#000000;startArrow=none;startFill=0;strokeColor=#000000;strokeWidth=2;fontStyle=1" parent="1" source="9RnYNbhTkQg6Az12UEx9-79" target="9RnYNbhTkQg6Az12UEx9-80" edge="1">
          <mxGeometry relative="1" as="geometry" />
        </mxCell>
        <UserObject label="Code Editor" tooltip="This is code editor for developer. STS, Eclipe etc." id="9RnYNbhTkQg6Az12UEx9-79">
          <mxCell style="aspect=fixed;perimeter=ellipsePerimeter;html=1;align=center;shadow=0;dashed=0;fontColor=#000000;labelBackgroundColor=#ffffff;fontSize=15;spacingTop=3;image;image=img/lib/ibm/devops/code_editor.svg;strokeColor=#99CCFF;fontStyle=1" parent="1" vertex="1">
            <mxGeometry x="120" y="-550" width="100" height="100" as="geometry" />
          </mxCell>
        </UserObject>
        <mxCell id="9RnYNbhTkQg6Az12UEx9-84" style="edgeStyle=orthogonalEdgeStyle;rounded=0;orthogonalLoop=1;jettySize=auto;html=1;entryX=-0.001;entryY=0.413;entryDx=0;entryDy=0;entryPerimeter=0;fontSize=20;fontColor=#000000;startArrow=none;startFill=0;strokeColor=#000000;strokeWidth=2;" parent="1" source="9RnYNbhTkQg6Az12UEx9-80" target="9RnYNbhTkQg6Az12UEx9-83" edge="1">
          <mxGeometry relative="1" as="geometry" />
        </mxCell>
        <mxCell id="9RnYNbhTkQg6Az12UEx9-88" value="Push notification" style="edgeLabel;html=1;align=center;verticalAlign=middle;resizable=0;points=[];fontSize=20;fontColor=#000000;" parent="9RnYNbhTkQg6Az12UEx9-84" vertex="1" connectable="0">
          <mxGeometry x="0.7196" y="1" relative="1" as="geometry">
            <mxPoint as="offset" />
          </mxGeometry>
        </mxCell>
        <UserObject label="VCS" tooltip="This is version control system for storing the code. Github, Gitlab, SVN etc." id="9RnYNbhTkQg6Az12UEx9-80">
          <mxCell style="shape=image;html=1;verticalAlign=top;verticalLabelPosition=bottom;labelBackgroundColor=#ffffff;imageAspect=0;aspect=fixed;image=https://cdn4.iconfinder.com/data/icons/socialcones/508/Github-128.png;fontSize=15;fontColor=#000000;strokeColor=#99CCFF;fontStyle=1" parent="1" vertex="1">
            <mxGeometry x="386.5" y="-560" width="110" height="110" as="geometry" />
          </mxCell>
        </UserObject>
        <mxCell id="9RnYNbhTkQg6Az12UEx9-100" style="edgeStyle=orthogonalEdgeStyle;rounded=0;orthogonalLoop=1;jettySize=auto;html=1;entryX=0.379;entryY=0;entryDx=0;entryDy=0;entryPerimeter=0;fontSize=20;fontColor=#000000;startArrow=none;startFill=0;strokeColor=#000000;strokeWidth=2;exitX=1;exitY=0.5;exitDx=0;exitDy=0;" parent="1" source="9RnYNbhTkQg6Az12UEx9-83" target="9RnYNbhTkQg6Az12UEx9-4" edge="1">
          <mxGeometry relative="1" as="geometry" />
        </mxCell>
        <UserObject label="Deployment" tooltip="This is deployment of the application over the cloud environment. This process shut downs the working copy of the application if there is any. &#xa;Process as follows&#xa;1. Push the build&#xa;2. Binds the services&#xa;3. Gets the properties and creds from config server and vault.&#xa;4. Connects with the DBs and Messaging services&#xa;5. Register it self on eureka with all newly created instances addresses. Also sends heart beats frequently." id="9RnYNbhTkQg6Az12UEx9-101">
          <mxCell style="edgeLabel;html=1;align=center;verticalAlign=middle;resizable=0;points=[];fontSize=20;fontColor=#000000;" parent="9RnYNbhTkQg6Az12UEx9-100" vertex="1" connectable="0">
            <mxGeometry x="0.8526" y="-1" relative="1" as="geometry">
              <mxPoint as="offset" />
            </mxGeometry>
          </mxCell>
        </UserObject>
        <UserObject label="CICD Pipeline" tooltip="This is CICD(continuous integration and continuous delivery/continuous deployment) pipeline for deployments of microservices over cloud.&#xa;Jenkins, Itdevops ect." id="9RnYNbhTkQg6Az12UEx9-83">
          <mxCell style="rounded=1;whiteSpace=wrap;html=1;labelBackgroundColor=#FFFFFF;fontSize=20;strokeColor=#6c8ebf;align=center;verticalAlign=bottom;fillColor=#dae8fc;labelPosition=center;verticalLabelPosition=top;" parent="1" vertex="1">
            <mxGeometry x="-130" y="-340" width="920" height="100" as="geometry" />
          </mxCell>
        </UserObject>
        <mxCell id="9RnYNbhTkQg6Az12UEx9-94" style="edgeStyle=orthogonalEdgeStyle;rounded=0;orthogonalLoop=1;jettySize=auto;html=1;entryX=0;entryY=0.5;entryDx=0;entryDy=0;fontSize=20;fontColor=#000000;startArrow=none;startFill=0;strokeColor=#000000;strokeWidth=2;" parent="1" source="9RnYNbhTkQg6Az12UEx9-89" target="9RnYNbhTkQg6Az12UEx9-90" edge="1">
          <mxGeometry relative="1" as="geometry" />
        </mxCell>
        <mxCell id="9RnYNbhTkQg6Az12UEx9-89" value="Code scanning" style="shape=hexagon;perimeter=hexagonPerimeter2;whiteSpace=wrap;html=1;fixedSize=1;labelBackgroundColor=#FFFFFF;fontSize=20;fontColor=#000000;strokeColor=#99CCFF;align=center;verticalAlign=middle;" parent="1" vertex="1">
          <mxGeometry x="-80" y="-325" width="120" height="70" as="geometry" />
        </mxCell>
        <mxCell id="9RnYNbhTkQg6Az12UEx9-95" style="edgeStyle=orthogonalEdgeStyle;rounded=0;orthogonalLoop=1;jettySize=auto;html=1;entryX=0;entryY=0.5;entryDx=0;entryDy=0;fontSize=20;fontColor=#000000;startArrow=none;startFill=0;strokeColor=#000000;strokeWidth=2;" parent="1" source="9RnYNbhTkQg6Az12UEx9-90" target="9RnYNbhTkQg6Az12UEx9-91" edge="1">
          <mxGeometry relative="1" as="geometry" />
        </mxCell>
        <mxCell id="9RnYNbhTkQg6Az12UEx9-90" value="Build JAR" style="shape=hexagon;perimeter=hexagonPerimeter2;whiteSpace=wrap;html=1;fixedSize=1;labelBackgroundColor=#FFFFFF;fontSize=20;fontColor=#000000;strokeColor=#99CCFF;align=center;verticalAlign=middle;" parent="1" vertex="1">
          <mxGeometry x="84" y="-325" width="120" height="70" as="geometry" />
        </mxCell>
        <mxCell id="9RnYNbhTkQg6Az12UEx9-97" style="edgeStyle=orthogonalEdgeStyle;rounded=0;orthogonalLoop=1;jettySize=auto;html=1;entryX=0;entryY=0.5;entryDx=0;entryDy=0;fontSize=20;fontColor=#000000;startArrow=none;startFill=0;strokeColor=#000000;strokeWidth=2;" parent="1" source="9RnYNbhTkQg6Az12UEx9-91" target="9RnYNbhTkQg6Az12UEx9-92" edge="1">
          <mxGeometry relative="1" as="geometry" />
        </mxCell>
        <mxCell id="9RnYNbhTkQg6Az12UEx9-91" value="JUnit Test cases" style="shape=hexagon;perimeter=hexagonPerimeter2;whiteSpace=wrap;html=1;fixedSize=1;labelBackgroundColor=#FFFFFF;fontSize=20;fontColor=#000000;strokeColor=#99CCFF;align=center;verticalAlign=middle;" parent="1" vertex="1">
          <mxGeometry x="250" y="-325" width="120" height="70" as="geometry" />
        </mxCell>
        <mxCell id="9RnYNbhTkQg6Az12UEx9-98" style="edgeStyle=orthogonalEdgeStyle;rounded=0;orthogonalLoop=1;jettySize=auto;html=1;entryX=0;entryY=0.5;entryDx=0;entryDy=0;fontSize=20;fontColor=#000000;startArrow=none;startFill=0;strokeColor=#000000;strokeWidth=2;" parent="1" source="9RnYNbhTkQg6Az12UEx9-92" target="9RnYNbhTkQg6Az12UEx9-93" edge="1">
          <mxGeometry relative="1" as="geometry" />
        </mxCell>
        <mxCell id="9RnYNbhTkQg6Az12UEx9-92" value="Sonar Code scan" style="shape=hexagon;perimeter=hexagonPerimeter2;whiteSpace=wrap;html=1;fixedSize=1;labelBackgroundColor=#FFFFFF;fontSize=20;fontColor=#000000;strokeColor=#99CCFF;align=center;verticalAlign=middle;" parent="1" vertex="1">
          <mxGeometry x="416.5" y="-325" width="120" height="70" as="geometry" />
        </mxCell>
        <mxCell id="9RnYNbhTkQg6Az12UEx9-93" value="Push the build on env" style="shape=hexagon;perimeter=hexagonPerimeter2;whiteSpace=wrap;html=1;fixedSize=1;labelBackgroundColor=#FFFFFF;fontSize=20;fontColor=#000000;strokeColor=#99CCFF;align=center;verticalAlign=middle;" parent="1" vertex="1">
          <mxGeometry x="600" y="-325" width="120" height="70" as="geometry" />
        </mxCell>
        <UserObject label="&lt;font style=&quot;font-size: 20px&quot;&gt;&lt;b&gt;User&lt;/b&gt;&lt;/font&gt;" tooltip="User can be any UI, Web app, Mobile app or completely another system." id="9RnYNbhTkQg6Az12UEx9-60">
          <mxCell style="sketch=0;pointerEvents=1;shadow=0;dashed=0;html=1;strokeColor=none;labelPosition=center;verticalLabelPosition=bottom;verticalAlign=top;align=center;fillColor=#505050;shape=mxgraph.mscae.intune.user_group" parent="1" vertex="1">
            <mxGeometry x="1030" y="670" width="50" height="37" as="geometry" />
          </mxCell>
        </UserObject>
      </root>
    </mxGraphModel>
  </diagram>
</mxfile>
